<svg id="_x31__px" height="512" viewBox="0 0 24 24" width="512" xmlns="http://www.w3.org/2000/svg"><g><path d="m.5 24c-.128 0-.256-.049-.354-.146-.195-.195-.195-.512 0-.707l7.5-7.5c.195-.195.512-.195.707 0s.195.512 0 .707l-7.5 7.5c-.097.097-.225.146-.353.146z"/></g><g><path d="m9 16.913c-.49 0-.98-.187-1.354-.56-.746-.746-.746-1.961 0-2.707l2.5-2.5c.195-.195.512-.195.707 0s.195.512 0 .707l-2.5 2.5c-.172.173-.267.403-.267.647s.095.474.268.646c.346.346.947.346 1.293 0l2.5-2.5c.195-.195.512-.195.707 0s.195.512 0 .707l-2.5 2.5c-.374.374-.864.56-1.354.56z"/></g><g><path d="m16.5 17.173c-.639 0-1.277-.243-1.764-.729l-7.18-7.18c-.973-.973-.973-2.555 0-3.527l2.59-2.59c.195-.195.512-.195.707 0l2.88 2.88c.195.195.195.512 0 .707s-.512.195-.707 0l-2.526-2.527-2.236 2.236c-.583.583-.583 1.53 0 2.113l7.18 7.18c.582.582 1.531.582 2.113 0l2.236-2.236-2.526-2.526c-.195-.195-.195-.512 0-.707s.512-.195.707 0l2.88 2.88c.195.195.195.512 0 .707l-2.59 2.59c-.487.486-1.125.729-1.764.729z"/></g><g><path d="m15.5 12c-1.93 0-3.5-1.57-3.5-3.5s1.57-3.5 3.5-3.5 3.5 1.57 3.5 3.5-1.57 3.5-3.5 3.5zm0-6c-1.379 0-2.5 1.121-2.5 2.5s1.121 2.5 2.5 2.5 2.5-1.121 2.5-2.5-1.121-2.5-2.5-2.5z"/></g><g><path d="m15.5 6c-.128 0-.256-.049-.354-.146-.195-.195-.195-.512 0-.707l4-4c.195-.195.512-.195.707 0s.195.512 0 .707l-4 4c-.097.097-.225.146-.353.146z"/></g><g><path d="m18.5 9c-.128 0-.256-.049-.354-.146-.195-.195-.195-.512 0-.707l4-4c.195-.195.512-.195.707 0s.195.512 0 .707l-4 4c-.097.097-.225.146-.353.146z"/></g><g><path d="m23.5 6c-.128 0-.256-.049-.354-.146l-5-5c-.195-.195-.195-.512 0-.707s.512-.195.707 0l5 5c.195.195.195.512 0 .707-.097.097-.225.146-.353.146z"/></g></svg>